<svg xmlns="http://www.w3.org/2000/svg" viewBox="0 0 425 585"><path fill="currentColor" fill-rule="evenodd" d="M217.0 1.0C219.7 1.2 224.7 0.7 229.0 3.0C233.3 5.3 231.2 2.2 236.0 11.0C240.8 19.8 243.7 25.9 250.0 42.0C256.3 58.1 259.0 66.1 264.0 82.0C269.0 97.9 269.3 99.5 272.0 112.0C274.7 124.5 275.5 122.0 276.0 137.0C276.5 152.0 272.9 170.1 274.0 178.0C275.1 185.9 277.1 176.5 281.0 172.0C284.9 167.5 286.7 166.4 291.0 158.0C295.3 149.6 295.7 140.7 300.0 135.0C304.3 129.3 307.1 132.8 310.0 133.0C312.9 133.2 312.3 131.7 313.0 136.0C313.7 140.3 313.7 145.4 313.0 152.0C312.3 158.6 313.6 155.0 310.0 165.0C306.4 175.0 299.9 185.8 297.0 196.0C294.1 206.2 295.9 204.3 297.0 210.0C298.1 215.7 299.7 217.8 302.0 221.0C304.3 224.2 305.2 224.2 307.0 224.0C308.8 223.8 305.0 222.5 310.0 220.0C315.0 217.5 321.5 217.3 329.0 213.0C336.5 208.7 337.8 203.5 343.0 201.0C348.2 198.5 349.5 201.1 352.0 202.0C354.5 202.9 353.8 200.5 354.0 205.0C354.2 209.5 352.5 215.9 353.0 222.0C353.5 228.1 353.3 225.4 356.0 232.0C358.7 238.6 360.0 242.4 365.0 251.0C370.0 259.6 373.5 262.1 378.0 270.0C382.5 277.9 382.7 278.7 385.0 286.0C387.3 293.3 387.5 293.6 388.0 302.0C388.5 310.4 380.9 323.5 387.0 323.0C393.1 322.5 407.3 305.2 415.0 300.0C422.7 294.8 418.7 299.1 421.0 300.0C423.3 300.9 424.3 301.5 425.0 304.0C425.7 306.5 428.3 304.4 424.0 311.0C419.7 317.6 411.9 323.5 406.0 333.0C400.1 342.5 400.9 341.9 398.0 353.0C395.1 364.1 393.9 367.0 393.0 382.0C392.1 397.0 394.2 406.8 394.0 419.0C393.8 431.2 394.5 424.7 392.0 436.0C389.5 447.3 387.5 456.1 383.0 469.0C378.5 481.9 378.6 481.7 372.0 493.0C365.4 504.3 361.9 509.3 354.0 519.0C346.1 528.7 345.8 528.5 337.0 536.0C328.2 543.5 326.6 545.0 315.0 552.0C303.4 559.0 298.0 561.6 286.0 567.0C274.0 572.4 276.7 572.1 262.0 576.0C247.3 579.9 238.9 582.0 221.0 584.0C203.1 586.0 197.7 585.5 183.0 585.0C168.3 584.5 168.0 584.0 156.0 582.0C144.0 580.0 144.5 580.8 130.0 576.0C115.5 571.2 106.5 568.0 92.0 561.0C77.5 554.0 77.3 553.6 66.0 545.0C54.7 536.4 50.6 532.3 42.0 523.0C33.4 513.7 34.3 514.9 28.0 504.0C21.7 493.1 19.2 488.4 14.0 475.0C8.8 461.6 7.9 457.7 5.0 445.0C2.1 432.3 1.9 434.2 1.0 419.0C0.1 403.8 -0.6 395.9 1.0 378.0C2.6 360.1 2.6 358.1 8.0 340.0C13.4 321.9 14.6 317.3 25.0 298.0C35.4 278.7 46.7 267.5 54.0 255.0C61.3 242.5 56.1 254.1 57.0 243.0C57.9 231.9 56.0 215.7 58.0 206.0C60.0 196.3 61.7 201.1 66.0 200.0C70.3 198.9 71.8 198.3 77.0 201.0C82.2 203.7 85.6 212.2 89.0 212.0C92.4 211.8 89.3 206.8 92.0 200.0C94.7 193.2 96.2 189.9 101.0 182.0C105.8 174.1 101.2 178.4 113.0 165.0C124.8 151.6 138.5 136.8 153.0 123.0C167.5 109.2 168.4 111.7 177.0 104.0C185.6 96.3 185.8 96.7 191.0 89.0C196.2 81.3 196.4 86.3 200.0 70.0C203.6 53.7 204.5 31.3 207.0 17.0C209.5 2.7 208.7 10.4 211.0 7.0C213.3 3.6 215.6 3.4 217.0 2.0C218.4 0.6 214.3 0.8 217.0 1.0ZM223.0 30.0C221.9 31.8 221.0 26.9 219.0 38.0C217.0 49.1 216.9 64.9 214.0 79.0C211.1 93.1 212.8 89.8 206.0 100.0C199.2 110.2 192.2 116.3 184.0 124.0C175.8 131.7 178.8 126.3 170.0 134.0C161.2 141.7 155.9 146.4 145.0 158.0C134.1 169.6 130.2 173.7 122.0 185.0C113.8 196.3 113.8 194.6 109.0 208.0C104.2 221.4 104.4 232.9 101.0 244.0C97.6 255.1 96.5 253.4 94.0 257.0C91.5 260.6 92.5 259.8 90.0 260.0C87.5 260.2 84.8 260.3 83.0 258.0C81.2 255.7 81.3 252.9 82.0 250.0C82.7 247.1 85.1 247.3 86.0 245.0C86.9 242.7 86.5 242.5 86.0 240.0C85.5 237.5 86.0 237.2 84.0 234.0C82.0 230.8 78.8 225.3 77.0 226.0C75.2 226.7 77.6 230.4 76.0 237.0C74.4 243.6 76.6 243.7 70.0 255.0C63.4 266.3 56.1 272.3 47.0 287.0C37.9 301.7 35.9 305.9 30.0 320.0C24.1 334.1 23.9 336.8 21.0 349.0C18.1 361.2 17.9 359.7 17.0 374.0C16.1 388.3 15.4 394.8 17.0 412.0C18.6 429.2 18.8 432.8 24.0 450.0C29.2 467.2 33.2 474.9 40.0 488.0C46.8 501.1 45.6 498.7 54.0 508.0C62.4 517.3 64.8 520.2 77.0 529.0C89.2 537.8 93.9 540.4 108.0 547.0C122.1 553.6 123.1 553.9 139.0 558.0C154.9 562.1 160.1 563.4 178.0 565.0C195.9 566.6 200.3 566.6 218.0 565.0C235.7 563.4 241.9 561.6 256.0 558.0C270.1 554.4 267.1 555.1 280.0 549.0C292.9 542.9 301.9 537.8 313.0 531.0C324.1 524.2 320.8 526.7 329.0 519.0C337.2 511.3 340.6 508.8 349.0 497.0C357.4 485.2 359.9 480.6 366.0 467.0C372.1 453.4 373.7 446.7 376.0 437.0C378.3 427.3 377.4 430.1 376.0 424.0C374.6 417.9 374.3 416.8 370.0 410.0C365.7 403.2 362.0 398.8 357.0 394.0C352.0 389.2 346.6 395.3 348.0 389.0C349.4 382.7 357.8 377.1 363.0 366.0C368.2 354.9 368.7 354.1 371.0 340.0C373.3 325.9 373.5 315.3 373.0 304.0C372.5 292.7 373.1 298.8 369.0 290.0C364.9 281.2 360.7 273.8 355.0 265.0C349.3 256.2 348.1 259.4 344.0 251.0C339.9 242.6 344.7 230.5 337.0 228.0C329.3 225.5 316.6 236.4 310.0 240.0C303.4 243.6 308.0 239.0 308.0 244.0C308.0 249.0 311.1 257.0 310.0 262.0C308.9 267.0 306.9 266.9 303.0 266.0C299.1 265.1 296.9 262.5 293.0 258.0C289.1 253.5 289.2 253.3 286.0 246.0C282.8 238.7 281.0 233.7 279.0 226.0C277.0 218.3 279.9 213.6 277.0 212.0C274.1 210.4 270.3 218.3 266.0 219.0C261.7 219.7 260.3 219.5 258.0 215.0C255.7 210.5 255.1 209.0 256.0 199.0C256.9 189.0 260.9 186.2 262.0 171.0C263.1 155.8 265.3 155.1 261.0 132.0C256.7 108.9 250.3 91.0 243.0 69.0C235.7 47.0 233.3 43.8 229.0 35.0C224.7 26.2 225.4 31.1 224.0 30.0C222.6 28.9 224.1 28.2 223.0 30.0ZM286.0 345.0C288.3 344.8 292.1 344.3 296.0 345.0C299.9 345.7 299.8 345.5 303.0 348.0C306.2 350.5 307.5 351.7 310.0 356.0C312.5 360.3 313.1 361.3 314.0 367.0C314.9 372.7 315.1 374.9 314.0 381.0C312.9 387.1 313.1 388.8 309.0 394.0C304.9 399.2 302.1 402.2 296.0 404.0C289.9 405.8 287.2 405.2 282.0 402.0C276.8 398.8 275.5 397.5 273.0 390.0C270.5 382.5 270.3 377.2 271.0 369.0C271.7 360.8 273.5 359.0 276.0 354.0C278.5 349.0 279.7 348.8 282.0 347.0C284.3 345.2 285.1 346.5 286.0 346.0C286.9 345.5 283.7 345.2 286.0 345.0ZM85.0 328.0C87.5 328.0 91.5 327.0 96.0 329.0C100.5 331.0 101.8 331.3 105.0 337.0C108.2 342.7 109.5 346.1 110.0 354.0C110.5 361.9 109.7 365.2 107.0 372.0C104.3 378.8 103.2 381.1 98.0 384.0C92.8 386.9 88.5 385.5 84.0 385.0C79.5 384.5 81.4 385.6 78.0 382.0C74.6 378.4 71.3 376.3 69.0 369.0C66.7 361.7 66.9 357.7 68.0 350.0C69.1 342.3 71.3 339.5 74.0 335.0C76.7 330.5 77.5 331.4 80.0 330.0C82.5 328.6 83.9 329.5 85.0 329.0C86.1 328.5 82.5 328.0 85.0 328.0ZM157.0 456.0C157.9 455.8 159.9 455.1 161.0 456.0C162.1 456.9 165.2 455.2 162.0 460.0C158.8 464.8 147.7 470.4 147.0 477.0C146.3 483.6 155.6 484.7 159.0 489.0C162.4 493.3 162.5 494.0 162.0 496.0C161.5 498.0 161.5 501.4 157.0 498.0C152.5 494.6 149.0 481.0 142.0 481.0C135.0 481.0 131.2 494.1 126.0 498.0C120.8 501.9 120.1 499.6 119.0 498.0C117.9 496.4 117.1 496.2 121.0 491.0C124.9 485.8 133.1 479.5 136.0 475.0C138.9 470.5 136.7 473.7 134.0 471.0C131.3 468.3 126.0 465.7 124.0 463.0C122.0 460.3 123.9 460.1 125.0 459.0C126.1 457.9 125.4 455.5 129.0 458.0C132.6 460.5 135.8 469.8 141.0 470.0C146.2 470.2 148.4 461.9 152.0 459.0C155.6 456.1 155.9 457.7 157.0 457.0C158.1 456.3 156.1 456.2 157.0 456.0ZM78.0 458.0C78.9 458.2 78.8 455.5 82.0 460.0C85.2 464.5 85.9 476.9 92.0 478.0C98.1 479.1 104.2 468.4 109.0 465.0C113.8 461.6 111.4 463.2 113.0 463.0C114.6 462.8 116.0 462.4 116.0 464.0C116.0 465.6 117.8 465.9 113.0 470.0C108.2 474.1 96.1 475.2 95.0 482.0C93.9 488.8 105.1 495.0 108.0 500.0C110.9 505.0 109.1 502.9 108.0 504.0C106.9 505.1 107.3 508.9 103.0 505.0C98.7 501.1 96.3 488.1 89.0 487.0C81.7 485.9 76.0 497.3 71.0 500.0C66.0 502.7 67.2 500.6 67.0 499.0C66.8 497.4 65.9 496.6 70.0 493.0C74.1 489.4 84.1 489.8 85.0 483.0C85.9 476.2 76.3 468.2 74.0 463.0C71.7 457.8 74.1 460.9 75.0 460.0C75.9 459.1 77.3 459.5 78.0 459.0C78.7 458.5 77.1 457.8 78.0 458.0ZM179.0 457.0C180.1 456.8 180.4 453.6 184.0 457.0C187.6 460.4 189.1 471.8 195.0 472.0C200.9 472.2 205.5 461.4 210.0 458.0C214.5 454.6 213.6 456.8 215.0 457.0C216.4 457.2 219.6 454.7 216.0 459.0C212.4 463.3 199.7 467.8 199.0 476.0C198.3 484.2 209.8 490.2 213.0 495.0C216.2 499.8 213.9 496.1 213.0 497.0C212.1 497.9 212.2 500.4 209.0 499.0C205.8 497.6 202.4 494.6 199.0 491.0C195.6 487.4 198.8 481.4 194.0 483.0C189.2 484.6 182.8 494.8 178.0 498.0C173.2 501.2 170.5 501.3 173.0 497.0C175.5 492.7 185.4 483.8 189.0 479.0C192.6 474.2 191.5 480.1 189.0 476.0C186.5 471.9 180.3 465.1 178.0 461.0C175.7 456.9 178.8 458.9 179.0 458.0C179.2 457.1 177.9 457.2 179.0 457.0ZM280.0 473.0C281.1 473.2 281.8 470.9 285.0 475.0C288.2 479.1 288.1 490.5 294.0 491.0C299.9 491.5 306.2 480.2 311.0 477.0C315.8 473.8 314.1 476.1 315.0 477.0C315.9 477.9 318.9 477.1 315.0 481.0C311.1 484.9 301.9 490.4 298.0 494.0C294.1 497.6 294.6 492.2 298.0 497.0C301.4 501.8 309.6 509.6 313.0 515.0C316.4 520.4 313.9 519.6 313.0 521.0C312.1 522.4 311.3 522.1 309.0 521.0C306.7 519.9 306.9 520.8 303.0 516.0C299.1 511.2 298.1 500.9 292.0 500.0C285.9 499.1 280.5 509.3 276.0 512.0C271.5 514.7 272.9 512.9 272.0 512.0C271.1 511.1 268.1 511.9 272.0 508.0C275.9 504.1 287.2 501.6 289.0 495.0C290.8 488.4 282.0 483.8 280.0 479.0C278.0 474.2 280.0 475.4 280.0 474.0C280.0 472.6 278.9 472.8 280.0 473.0ZM232.0 462.0C232.7 461.8 232.3 458.6 235.0 462.0C237.7 465.4 238.6 476.1 244.0 477.0C249.4 477.9 254.2 468.5 259.0 466.0C263.8 463.5 263.6 465.1 265.0 466.0C266.4 466.9 268.6 466.1 265.0 470.0C261.4 473.9 250.4 476.4 249.0 483.0C247.6 489.6 257.0 493.8 259.0 499.0C261.0 504.2 258.9 504.4 258.0 506.0C257.1 507.6 258.2 510.1 255.0 506.0C251.8 501.9 249.9 488.9 244.0 488.0C238.1 487.1 233.5 498.4 229.0 502.0C224.5 505.6 225.6 503.8 224.0 504.0C222.4 504.2 222.2 504.4 222.0 503.0C221.8 501.6 218.9 502.8 223.0 498.0C227.1 493.2 238.2 488.6 240.0 482.0C241.8 475.4 232.8 473.3 231.0 469.0C229.2 464.7 231.8 464.6 232.0 463.0C232.2 461.4 231.3 462.2 232.0 462.0Z"/></svg>
